<svg id="FRC 2879 Logo" data-name="FRC 2879 Logo" xmlns="http://www.w3.org/2000/svg" viewBox="0 0 300 200"><title>FRC 2879 Logo</title><path d="M36.29,141.57c.7-.41,1.41-.81,2.14-1.2A49.61,49.61,0,0,1,55.75,135c1.29-.16,2.58-.26,3.86-.31a53.29,53.29,0,1,1,89.65-55.16,9.76,9.76,0,0,1,2-1.07l.29-.11.3-.08c1.83-.55,3.52-1,5.19-1.49a42.66,42.66,0,0,1,6.26-1.23,30.48,30.48,0,0,1,3.65-.22,26.8,26.8,0,0,1,3,.16c2.8.31-.75-7.36-.75-7.36a75.34,75.34,0,0,0-6.95-12.05l15-22.45L166.44,22.86,144,37.84a76.06,76.06,0,0,0-12-6.95l1.74-26.95L119,0,107,24.19a75.77,75.77,0,0,0-13.91,0L81.15,0,66.44,3.95l1.74,26.93a75.75,75.75,0,0,0-12.05,6.95l-22.45-15L22.92,33.62l15,22.47a76.47,76.47,0,0,0-6.95,12L4,66.39.06,81.09,24.25,93a75.56,75.56,0,0,0,0,13.91l-24.19,12L4,133.62l26.93-1.73A75.59,75.59,0,0,0,36.29,141.57Z"/><path d="M57.88,188.23C60.66,188.1,63,188,65,188a10.39,10.39,0,0,1,3.59.41A7.51,7.51,0,0,1,71.29,190a18.19,18.19,0,0,1,2.12,2.19,11.81,11.81,0,0,1,1.45,2.19c.51.76.54,1.27.14,1.54a7.48,7.48,0,0,1-2.78.58c-2.27.08-4.89.23-7.88.45s-6,.45-9,.7-5.91.53-8.67.83-5.06.58-6.89.84c-1.39.17-2.52.27-3.4.29a15,15,0,0,1-2.22-.09,6.94,6.94,0,0,1-1.55-.4,10.37,10.37,0,0,1-1.31-.64c-.58-.26-1.2-.58-1.89-1s-1.39-.79-2.08-1.22-1.36-.87-2-1.32-1.24-.86-1.75-1.25a6.61,6.61,0,0,1-1.18-1,3.43,3.43,0,0,1-.7-1.19,1.42,1.42,0,0,1,.13-1.18,3.55,3.55,0,0,1,1.47-1.16q5-2.5,10.47-5.87t10.66-6.94q5.18-3.55,9.71-7.09t7.64-6.45a28.53,28.53,0,0,0,4.38-4.92c.86-1.32.86-2.17,0-2.56a4.44,4.44,0,0,0-2.92-.22,18.38,18.38,0,0,0-4,1.31,48.82,48.82,0,0,0-4.61,2.41c-1.64,1-3.25,2-4.82,3a16.26,16.26,0,0,1-4,1.35,25.32,25.32,0,0,1-4.48.51,37.35,37.35,0,0,1-4.66-.16,30.21,30.21,0,0,1-4.44-.74,6.88,6.88,0,0,1-2-.71,2.07,2.07,0,0,1-1-1.19,2.58,2.58,0,0,1,.24-1.82,13.42,13.42,0,0,1,1.69-2.7,38.94,38.94,0,0,1,11.14-8.65,41.1,41.1,0,0,1,14.43-4.46,34.25,34.25,0,0,1,8.71,0A39.39,39.39,0,0,1,73,145a28.62,28.62,0,0,1,6,2.83,23.1,23.1,0,0,1,4.1,3.18,11.6,11.6,0,0,1,2.54,4.43,8,8,0,0,1,0,4.21,13.25,13.25,0,0,1-2,4.17,36.63,36.63,0,0,1-3.54,4.27,51,51,0,0,1-5.66,5.26c-2.26,1.84-4.74,3.68-7.4,5.52s-5.5,3.62-8.45,5.33-5.89,3.27-8.77,4.69C52.45,188.57,55.11,188.36,57.88,188.23Z"/><path d="M148.41,169.29q-4.43,2.11-10.09,4.24a30.57,30.57,0,0,1,8.43,5,8.4,8.4,0,0,1,3,4.95,6.83,6.83,0,0,1-1.38,4.81,24.3,24.3,0,0,1-4.47,4.75,25.66,25.66,0,0,1-7.18,3.92,39.15,39.15,0,0,1-8.3,2,50.56,50.56,0,0,1-8.92.32,57,57,0,0,1-8.9-1.12c-5.54-1.07-9.67-2.71-12.41-4.92s-3.95-4.65-3.63-7.34a8.53,8.53,0,0,1,1.75-4.06,17.92,17.92,0,0,1,3.82-3.62,39.85,39.85,0,0,1,5.37-3.22q3-1.49,6.32-2.92-7.45-3.4-9.57-7.51t1.74-8.79a29.62,29.62,0,0,1,8.91-7.13,57.06,57.06,0,0,1,13-5,28.3,28.3,0,0,1,12.12-.55,39.47,39.47,0,0,1,11.47,4,29.67,29.67,0,0,1,5.56,4,12.27,12.27,0,0,1,3.17,4.34,7.05,7.05,0,0,1,.23,4.58,10.57,10.57,0,0,1-3.12,4.66A23.52,23.52,0,0,1,148.41,169.29Zm-30.19,12.9a19,19,0,0,0-4.63,4.24,3.55,3.55,0,0,0-.75,2,2.56,2.56,0,0,0,.42,1.47,3.25,3.25,0,0,0,1.19,1.07,5.83,5.83,0,0,0,1.6.61,10.69,10.69,0,0,0,5.51-.48,14,14,0,0,0,5.72-3.56,12.32,12.32,0,0,0,1.79-2.42,4.39,4.39,0,0,0,.61-2.34,3.87,3.87,0,0,0-.94-2.25,9.12,9.12,0,0,0-3-2.12A37.07,37.07,0,0,0,118.23,182.19Zm9-25.1A17.34,17.34,0,0,0,122.8,161a4.46,4.46,0,0,0-1,3.54,4.58,4.58,0,0,0,2.21,2.86q10.85-4.55,13.92-8T135,153A47.08,47.08,0,0,0,127.18,157.09Z"/><path d="M203.47,155.32c-1.95.16-3.87.31-5.76.48l-5.42.49c-1.73.16-3.19.27-4.39.36a14.71,14.71,0,0,1-4.44,0,11.79,11.79,0,0,1-4.43-1.69c-.44-.38-1-.83-1.55-1.32s-1.22-1-1.86-1.54-1.22-1.08-1.79-1.64a16.32,16.32,0,0,1-1.41-1.54c-1-.94-1.35-1.61-1-2a3.94,3.94,0,0,1,2.27-.9q4-.77,9.25-1.28t11-.9c3.85-.25,7.71-.48,11.61-.64s7.51-.31,10.85-.39a20.55,20.55,0,0,1,4.84.48A8.47,8.47,0,0,1,225,145.4a40.33,40.33,0,0,1,3.79,3.25q1.59,1.56,2.92,2.79a4.53,4.53,0,0,1,1.66,3q0,1.44-1.93,3.12-5.2,4.55-10.57,9.72T210.3,177.83q-5.13,5.38-9.8,10.75t-8.34,10.18a2.55,2.55,0,0,1-1.8,1.22,9.34,9.34,0,0,1-3.21-.44c-1.45-.48-2.9-1-4.34-1.61a27.68,27.68,0,0,1-4-2c-1.14-.73-1.76-1.39-1.84-2a4.45,4.45,0,0,1,.61-2.44q2.64-4.25,6.13-8.83t7.55-9.28q4-4.69,8.49-9.34t9.15-9.09Q206.39,155.1,203.47,155.32Z"/><path d="M261.36,181.33a17.55,17.55,0,0,1-2.64-.42c-4.84-1-8.46-2.36-10.8-4a11.4,11.4,0,0,1-4.67-6.17,13.91,13.91,0,0,1-.9-7,19.58,19.58,0,0,1,2.26-7,27.48,27.48,0,0,1,4.77-6.32,26.47,26.47,0,0,1,6.51-4.79,36.53,36.53,0,0,1,4.34-1.7,28.29,28.29,0,0,1,5.47-1.16,37,37,0,0,1,6.79-.07,48.51,48.51,0,0,1,8.4,1.52,78.38,78.38,0,0,1,8,2.82,27.21,27.21,0,0,1,5.89,3.31,13.8,13.8,0,0,1,3.68,4,11.51,11.51,0,0,1,1.46,5.1,20.1,20.1,0,0,1-2.74,9.73,48.35,48.35,0,0,1-7.88,10.69,81.43,81.43,0,0,1-11.74,10.14,72.48,72.48,0,0,1-14.34,8,18.36,18.36,0,0,1-3.63,1.15,8.7,8.7,0,0,1-4.1-.38l-4-1.12a27,27,0,0,1-3.91-1.45,9.76,9.76,0,0,1-1.27-.74,1.94,1.94,0,0,1-.72-.74.76.76,0,0,1,.09-.8,3.4,3.4,0,0,1,1.32-.94,92.52,92.52,0,0,0,17-11.49C263.12,181.49,262.24,181.39,261.36,181.33Zm15.29-15.83a24.86,24.86,0,0,0,2-5.48,7.07,7.07,0,0,0-.09-4,3.42,3.42,0,0,0-2.41-2.12,5.88,5.88,0,0,0-3.4.26,13.56,13.56,0,0,0-3.58,2,21.57,21.57,0,0,0-3.35,3.18,25.41,25.41,0,0,0-2.69,3.82,19.17,19.17,0,0,0-1.27,3.54,8.43,8.43,0,0,0-.24,3.14,4.57,4.57,0,0,0,1,2.41,4.21,4.21,0,0,0,2.45,1.32,9.48,9.48,0,0,0,7.56-1.54A46.66,46.66,0,0,0,276.65,165.5Z"/><path d="M140.71,86.06a6.16,6.16,0,0,1,1.14,2.18,12.64,12.64,0,0,1,.22,4.4,15.93,15.93,0,0,1-1.31,4.72,17.89,17.89,0,0,1-2.85,4.43,16,16,0,0,1-4.43,3.53,12.92,12.92,0,0,1-3.74,1.15,21.34,21.34,0,0,1-4.5.13q-1.69-.11-3.48-.35a18.59,18.59,0,0,1-3.25-.71,14.81,14.81,0,0,1-2.36-1,6.16,6.16,0,0,1-1.83-1.39,8.76,8.76,0,0,1-1.6-2.89,9.9,9.9,0,0,1-.49-3.39,12.27,12.27,0,0,1,.67-3.62,14.58,14.58,0,0,1,1.83-3.6,18.52,18.52,0,0,1,3-3.32,21.25,21.25,0,0,1,4.08-2.82,14.53,14.53,0,0,1,3.72-1.14,14.92,14.92,0,0,1,4.12-.19,38.37,38.37,0,0,1,4.83.78,17.55,17.55,0,0,1,3.81,1.28A7.6,7.6,0,0,1,140.71,86.06ZM129,87.51a11.55,11.55,0,0,0-2.32,1.85,19.79,19.79,0,0,0-2.16,2.6,18.55,18.55,0,0,0-1.63,2.76,11.06,11.06,0,0,0-.89,2.71,10,10,0,0,0-.18,2.61,4.48,4.48,0,0,0,.62,2.07,2.25,2.25,0,0,0,1.56,1.06,3.21,3.21,0,0,0,2-.25,7.73,7.73,0,0,0,2-1.36,12.2,12.2,0,0,0,1.94-2.26,17,17,0,0,0,1.58-2.93,15.66,15.66,0,0,0,.94-2.88,13.27,13.27,0,0,0,.36-2.93,6,6,0,0,0-.42-2.38A1.77,1.77,0,0,0,131.07,87,3,3,0,0,0,129,87.51Z"/><path d="M157.51,102.94l-1,3.06a1.11,1.11,0,0,1-.6.58,3.4,3.4,0,0,1-1.4,0q-1.2-.19-2.14-.31a9.16,9.16,0,0,1-1.78-.39,2.41,2.41,0,0,1-1.16-.74,1.58,1.58,0,0,1-.22-1.15q.09-.58.24-1.69t.38-2.51q.22-1.4.51-3t.62-3.22q.33-1.61.73-3.12t.85-2.72a9.37,9.37,0,0,1,1-2,2.35,2.35,0,0,1,1.11-1q2.76-.78,5.77-1.53a44.48,44.48,0,0,1,5.93-1.07,26.39,26.39,0,0,1,5.52-.06,10.75,10.75,0,0,1,4.57,1.46,22,22,0,0,1,2.83,2.26,8.4,8.4,0,0,1,2,3,3,3,0,0,1-.45,3.06,13.9,13.9,0,0,1-5.15,3.53,61.11,61.11,0,0,1-8.58,3q1,.72,2.25,1.53t2.52,1.61q1.29.81,2.56,1.56t2.38,1.31q.89.47.8.75t-.76.58a4.54,4.54,0,0,1-1.36.46l-1.36.15a9,9,0,0,1-4.9-.56q-1-.44-2.36-1.11t-2.76-1.47q-1.43-.81-2.85-1.68a29.93,29.93,0,0,1-2.58-1.76Q158,101.38,157.51,102.94ZM162,91.44q-.67,1.61-1.51,3.44A34.16,34.16,0,0,0,166,93.31a27,27,0,0,0,4-1.89,9.06,9.06,0,0,0,2.32-1.82q.71-.86.45-1.33-.53-.78-3.16-.78a23.27,23.27,0,0,0-2.85.19,19.86,19.86,0,0,0-3.3.72Q162.7,89.83,162,91.44Z"/><path d="M201.63,85a1.26,1.26,0,0,1-.07,1.14q-.62,1.25-1.36,2.86t-1.47,3.4q-.74,1.79-1.45,3.67t-1.38,3.67q-.67,1.79-1.23,3.39t-1,2.85a1.11,1.11,0,0,1-.6.61,3.84,3.84,0,0,1-1.54,0l-2.21-.39a15.38,15.38,0,0,1-2-.5A2.85,2.85,0,0,1,186,105a1.31,1.31,0,0,1-.2-1.12q.09-1,.38-2.51t.71-3.37q.42-1.83,1-3.86t1.09-4q.56-1.94,1.14-3.68t1.07-3a1.72,1.72,0,0,1,1.09-1,5.18,5.18,0,0,1,2.07.07,27.93,27.93,0,0,1,3,.67,24.24,24.24,0,0,1,2.81.94A3.58,3.58,0,0,1,201.63,85Z"/><path d="M234.77,86.06a6.16,6.16,0,0,1,1.14,2.18,12.64,12.64,0,0,1,.22,4.4,15.93,15.93,0,0,1-1.31,4.72A17.89,17.89,0,0,1,232,101.8a16,16,0,0,1-4.43,3.53,12.92,12.92,0,0,1-3.74,1.15,21.34,21.34,0,0,1-4.5.13q-1.69-.11-3.48-.35a18.59,18.59,0,0,1-3.25-.71,14.81,14.81,0,0,1-2.36-1,6.16,6.16,0,0,1-1.83-1.39,8.76,8.76,0,0,1-1.6-2.89,9.9,9.9,0,0,1-.49-3.39,12.27,12.27,0,0,1,.67-3.62,14.58,14.58,0,0,1,1.83-3.6,18.52,18.52,0,0,1,3-3.32,21.25,21.25,0,0,1,4.08-2.82,14.53,14.53,0,0,1,3.72-1.14,14.92,14.92,0,0,1,4.12-.19,38.37,38.37,0,0,1,4.83.78,17.55,17.55,0,0,1,3.81,1.28A7.6,7.6,0,0,1,234.77,86.06ZM223,87.51a11.55,11.55,0,0,0-2.32,1.85,19.79,19.79,0,0,0-2.16,2.6,18.55,18.55,0,0,0-1.63,2.76,11.06,11.06,0,0,0-.89,2.71,10,10,0,0,0-.18,2.61,4.48,4.48,0,0,0,.62,2.07,2.25,2.25,0,0,0,1.56,1.06,3.21,3.21,0,0,0,2-.25,7.73,7.73,0,0,0,2-1.36A12.2,12.2,0,0,0,224,99.28a17,17,0,0,0,1.58-2.93,15.66,15.66,0,0,0,.94-2.88,13.27,13.27,0,0,0,.36-2.93,6,6,0,0,0-.42-2.38A1.77,1.77,0,0,0,225.13,87,3,3,0,0,0,223,87.51Z"/><path d="M256.58,105.73l-5.64.68a13.49,13.49,0,0,1-1.65.19,6.52,6.52,0,0,1-1.16,0,4.82,4.82,0,0,1-.82-.18q-.33-.11-.65-.25-.76-.31-1.38-.62l-1.65-.82a3.62,3.62,0,0,1-1.16-.87,1.26,1.26,0,0,1-.22-1.18q.13-1.08.45-2.57t.76-3.21q.45-1.72,1-3.57t1.16-3.68q.62-1.83,1.27-3.53T248.14,83a1.75,1.75,0,0,1,1.14-1,5.7,5.7,0,0,1,2.07.1q1.38.22,3,.62a20.17,20.17,0,0,1,2.81.9,4,4,0,0,1,1.45.92q.29.39-.11,1.11-.89,1.67-1.8,3.67t-1.83,4.11q-.91,2.11-1.74,4.21t-1.54,4q2-.22,3.83-.33t3.88-.19a7.39,7.39,0,0,1,1.89.1,2.49,2.49,0,0,1,1.18.68,5.54,5.54,0,0,1,.87,1,5.23,5.23,0,0,1,.51,1q.31.58.16.78a3.54,3.54,0,0,1-1.54.36Z"/><path d="M279.85,83.38q2.34-.33,4.9-.61t5.26-.49q2.7-.21,5.37-.26t3.25,1.22a4.62,4.62,0,0,1,.8,1.21q.22.54.45,1.18t-.18,1a4,4,0,0,1-1.65.36l-5.52.39q-2.85.19-6,.47-.67,1.25-1.25,2.6T284,93.24q1.34-.11,2.67-.17T289.5,93a8.24,8.24,0,0,1,2,.14,2.26,2.26,0,0,1,1.2.72,5.06,5.06,0,0,1,.82,1.1A11.22,11.22,0,0,1,294,96q.36.64.07.86a4,4,0,0,1-1.54.39q-2.67.31-5.46.58t-5.37.61l-.67,1.68q-.31.79-.67,1.57,2.09-.22,4-.36t4.12-.22a7.32,7.32,0,0,1,1.94.11,2.42,2.42,0,0,1,1.18.67,6,6,0,0,1,.82,1q.29.49.65,1t0,.76a3.28,3.28,0,0,1-1.43.35l-5.79.69-5.61.67a9.16,9.16,0,0,1-2.7.13,7.27,7.27,0,0,1-1.58-.43q-.76-.31-1.45-.62t-1.63-.82a3.58,3.58,0,0,1-1.18-.92,1.65,1.65,0,0,1-.33-1.28L275.6,84Q277.51,83.71,279.85,83.38Z"/><path d="M121.21,133.89l-.7,3.06a1,1,0,0,1-.42.58,1.66,1.66,0,0,1-1,0q-.83-.19-1.48-.31a4.74,4.74,0,0,1-1.24-.39,1.76,1.76,0,0,1-.8-.74,2.17,2.17,0,0,1-.15-1.15q.06-.58.17-1.69t.26-2.51q.15-1.4.36-3t.43-3.22q.23-1.61.51-3.12t.59-2.72a11.48,11.48,0,0,1,.68-2,2,2,0,0,1,.77-1q1.92-.78,4-1.53a22.52,22.52,0,0,1,4.11-1.07,12.73,12.73,0,0,1,3.83-.06,6,6,0,0,1,3.17,1.46,17.91,17.91,0,0,1,2,2.26,9.25,9.25,0,0,1,1.38,3,4.14,4.14,0,0,1-.31,3.06,10.53,10.53,0,0,1-3.57,3.53,34.81,34.81,0,0,1-5.95,3q.71.72,1.56,1.53t1.75,1.61q.9.81,1.78,1.56t1.65,1.31q.62.47.56.75a1.1,1.1,0,0,1-.53.58,2.55,2.55,0,0,1-.94.46l-.94.15a4.64,4.64,0,0,1-1.5.1,5,5,0,0,1-1.9-.65q-.71-.44-1.64-1.11t-1.92-1.47q-1-.81-2-1.68a22.42,22.42,0,0,1-1.79-1.76Q121.57,132.34,121.21,133.89Zm3.14-11.5q-.46,1.61-1.05,3.44a18.55,18.55,0,0,0,3.79-1.57,17.08,17.08,0,0,0,2.77-1.89,7.36,7.36,0,0,0,1.61-1.82,1.65,1.65,0,0,0,.31-1.33q-.37-.78-2.19-.78a11.28,11.28,0,0,0-2,.19,10.28,10.28,0,0,0-2.29.72Q124.81,120.78,124.35,122.39Z"/><path d="M161.3,117a7.41,7.41,0,0,1,.79,2.18,18.12,18.12,0,0,1,.15,4.4,21.65,21.65,0,0,1-.91,4.72,20.12,20.12,0,0,1-2,4.43,13,13,0,0,1-3.07,3.53,7.13,7.13,0,0,1-2.6,1.15,10.31,10.31,0,0,1-3.12.13q-1.17-.11-2.41-.35a9.63,9.63,0,0,1-2.26-.71,9,9,0,0,1-1.64-1,4.9,4.9,0,0,1-1.27-1.39,10.34,10.34,0,0,1-1.11-2.89,14,14,0,0,1-.34-3.39,17.2,17.2,0,0,1,.46-3.62,17.74,17.74,0,0,1,1.27-3.6,18,18,0,0,1,2.05-3.32,16,16,0,0,1,2.83-2.82,8,8,0,0,1,2.58-1.14,7.24,7.24,0,0,1,2.86-.19,19.24,19.24,0,0,1,3.35.78,9.91,9.91,0,0,1,2.64,1.28A6,6,0,0,1,161.3,117Zm-8.14,1.44a9.37,9.37,0,0,0-1.61,1.85,19.93,19.93,0,0,0-1.5,2.6,21.58,21.58,0,0,0-1.13,2.76,14.71,14.71,0,0,0-.62,2.71,14.36,14.36,0,0,0-.12,2.61,6,6,0,0,0,.43,2.07,1.68,1.68,0,0,0,1.08,1.06,1.62,1.62,0,0,0,1.36-.25,5.69,5.69,0,0,0,1.42-1.36,12.1,12.1,0,0,0,1.34-2.26,20.28,20.28,0,0,0,1.1-2.93,20.88,20.88,0,0,0,.65-2.88,18.9,18.9,0,0,0,.25-2.93,8.41,8.41,0,0,0-.29-2.38q-.29-1-.91-1.15A1.58,1.58,0,0,0,153.16,118.46Z"/><path d="M185.17,128.06a5.49,5.49,0,0,1,1,2.06,3.25,3.25,0,0,1-.37,2.12,6,6,0,0,1-1.7,1.71,12.43,12.43,0,0,1-1.9,1.22,21.3,21.3,0,0,1-2.32,1.06q-1.22.47-2.46.85t-2.35.62q-.59.14-1,.19a4,4,0,0,1-.8,0,3.52,3.52,0,0,1-.76-.14,5.41,5.41,0,0,1-.87-.36,11.76,11.76,0,0,1-1.62-.76q-.7-.4-1.62-1l-.6-.57a2.12,2.12,0,0,1-.42-.5,1.84,1.84,0,0,1-.22-.6,3,3,0,0,1,0-.86q.09-1.72.34-3.9t.54-4.53q.29-2.35.53-4.72t.29-4.51a19.92,19.92,0,0,1,2.72-1.08,32.88,32.88,0,0,1,3.23-.86,30,30,0,0,1,3.41-.53,22.07,22.07,0,0,1,3.29-.08,12.73,12.73,0,0,1,2.86.46,5.57,5.57,0,0,1,2.13,1.1,10.64,10.64,0,0,1,1.81,2.08,8,8,0,0,1,1.07,2.58,3.77,3.77,0,0,1,0,1.56,5.15,5.15,0,0,1-.57,1.44,6.44,6.44,0,0,1-1,1.29,12.63,12.63,0,0,1-1.27,1.12l-1.51,1a12.69,12.69,0,0,1-1.82,1A5.08,5.08,0,0,1,185.17,128.06Zm-11.8,3.32q-.26,1.07-.48,2.18a20.72,20.72,0,0,0,2.94-.87,13.94,13.94,0,0,0,2.26-1.08,5.2,5.2,0,0,0,1.38-1.14,1.2,1.2,0,0,0,.32-1,1.34,1.34,0,0,0-.62-.5,3.87,3.87,0,0,0-1.24-.31,7.92,7.92,0,0,0-1.79,0,14.37,14.37,0,0,0-2.26.49Q173.63,130.31,173.36,131.38Zm5.22-8.24a17.49,17.49,0,0,0,2.63-1.63,7,7,0,0,0,1.56-1.56,1.54,1.54,0,0,0,.37-1.18,1,1,0,0,0-.68-.54,4.12,4.12,0,0,0-1.44-.14,10.9,10.9,0,0,0-2,.32,16.66,16.66,0,0,0-2.47.83,22.53,22.53,0,0,0-.74,2.5q-.31,1.31-.74,2.78A20.11,20.11,0,0,0,178.59,123.14Z"/><path d="M212.4,117a7.41,7.41,0,0,1,.79,2.18,18.12,18.12,0,0,1,.15,4.4,21.65,21.65,0,0,1-.91,4.72,20.12,20.12,0,0,1-2,4.43,13,13,0,0,1-3.07,3.53,7.13,7.13,0,0,1-2.6,1.15,10.31,10.31,0,0,1-3.12.13q-1.17-.11-2.41-.35a9.63,9.63,0,0,1-2.26-.71,9,9,0,0,1-1.64-1,4.9,4.9,0,0,1-1.27-1.39,10.34,10.34,0,0,1-1.11-2.89,14,14,0,0,1-.34-3.39,17.2,17.2,0,0,1,.46-3.62,17.74,17.74,0,0,1,1.27-3.6,18,18,0,0,1,2.05-3.32,16,16,0,0,1,2.83-2.82,8,8,0,0,1,2.58-1.14,7.24,7.24,0,0,1,2.86-.19,19.24,19.24,0,0,1,3.35.78,9.91,9.91,0,0,1,2.64,1.28A6,6,0,0,1,212.4,117Zm-8.14,1.44a9.37,9.37,0,0,0-1.61,1.85,19.93,19.93,0,0,0-1.5,2.6,21.58,21.58,0,0,0-1.13,2.76,14.71,14.71,0,0,0-.62,2.71,14.36,14.36,0,0,0-.12,2.61,6,6,0,0,0,.43,2.07,1.68,1.68,0,0,0,1.08,1.06,1.62,1.62,0,0,0,1.36-.25,5.69,5.69,0,0,0,1.42-1.36,12.1,12.1,0,0,0,1.34-2.26,20.28,20.28,0,0,0,1.1-2.93,20.88,20.88,0,0,0,.65-2.88,18.9,18.9,0,0,0,.25-2.93,8.41,8.41,0,0,0-.29-2.38q-.29-1-.91-1.15A1.58,1.58,0,0,0,204.25,118.46Z"/><path d="M235.76,117.88l-2.94.26L231.48,123q-.7,2.5-1.34,5t-1.22,4.79q-.57,2.33-1,4.36a.66.66,0,0,1-.29.51,1.25,1.25,0,0,1-.63.11,4.28,4.28,0,0,1-.93-.15l-1.17-.31a11.91,11.91,0,0,1-1.17-.36,3.23,3.23,0,0,1-.88-.47,1.59,1.59,0,0,1-.51-.65,1.46,1.46,0,0,1,0-.9q.09-1.33.37-3.28t.66-4.11q.39-2.17.85-4.37t.93-4.1q-.9.14-1.73.24a11.36,11.36,0,0,0-1.39.24,2.84,2.84,0,0,1-1.27,0,2.71,2.71,0,0,1-1.11-.71,6.49,6.49,0,0,1-1.19-1.47q-.54-.89-.88-1.5t-.19-.85a1.55,1.55,0,0,1,.77-.35q1.82-.33,4.13-.61t4.7-.5q2.39-.22,4.7-.38t4.13-.21a4.4,4.4,0,0,1,1.38.15,1.74,1.74,0,0,1,.73.51,6.23,6.23,0,0,1,1,1.39,8,8,0,0,1,.62,1.47q.19.64,0,.87t-1.13.29Z"/><path d="M252.27,116a1.76,1.76,0,0,1,0,1.14q-.43,1.25-.94,2.86t-1,3.4q-.51,1.79-1,3.67t-1,3.67q-.46,1.79-.85,3.39t-.66,2.85a1,1,0,0,1-.42.61,1.87,1.87,0,0,1-1.07,0l-1.53-.39a8.14,8.14,0,0,1-1.38-.5,1.91,1.91,0,0,1-.94-.71,1.8,1.8,0,0,1-.14-1.12q.06-1,.26-2.51t.49-3.37q.29-1.83.66-3.86t.76-4q.39-1.94.79-3.68t.74-3a1.47,1.47,0,0,1,.76-1,2.52,2.52,0,0,1,1.44.07,14.48,14.48,0,0,1,2.07.67,13.65,13.65,0,0,1,1.95.94A2.6,2.6,0,0,1,252.27,116Z"/><path d="M273,132.17a2.55,2.55,0,0,1-.48,1.44,7.82,7.82,0,0,1-1.42,1.83,11.38,11.38,0,0,1-1.73,1.39,6.79,6.79,0,0,1-1,.47,9,9,0,0,1-1.27.36,10.9,10.9,0,0,1-1.39.19,8.94,8.94,0,0,1-1.41,0,12.84,12.84,0,0,1-2.63-.4l-2.1-.6a7.3,7.3,0,0,1-1.67-.89,4.44,4.44,0,0,1-1.3-1.36,7.69,7.69,0,0,1-1.13-2.82,14.08,14.08,0,0,1-.23-3.47,18.85,18.85,0,0,1,.6-3.81,21,21,0,0,1,1.41-3.82,20.66,20.66,0,0,1,2.15-3.51,15.55,15.55,0,0,1,2.86-2.9,6.83,6.83,0,0,1,2.63-1.31,8.48,8.48,0,0,1,2.5-.22,14.54,14.54,0,0,1,1.79.29,17.93,17.93,0,0,1,1.79.5q.86.29,1.64.64a15,15,0,0,1,1.39.71,7,7,0,0,1,1,.87,4.32,4.32,0,0,1,.62.88,3.37,3.37,0,0,1,.32.93,7.94,7.94,0,0,1,.12,1,11.66,11.66,0,0,1,0,1.33q0,.69-.14,1.37a12.5,12.5,0,0,1-.25,1.31,10.52,10.52,0,0,1-.34,1.12l-.19.42a.73.73,0,0,1-.26.31,1,1,0,0,1-.48.14,3.56,3.56,0,0,1-.83-.06,8,8,0,0,1-1.7-.46,4.21,4.21,0,0,1-1.17-.69,3.19,3.19,0,0,1-.74-.93,4.17,4.17,0,0,1-.4-1.22,6.94,6.94,0,0,1-.09-1.08,8,8,0,0,0-.09-1.61,1.12,1.12,0,0,0-.74-.94q-.62-.17-1.45.64a12.89,12.89,0,0,0-1.7,2.1,23.93,23.93,0,0,0-1.62,2.85,22.6,22.6,0,0,0-1.19,2.89,20.72,20.72,0,0,0-.6,2.76,12.57,12.57,0,0,0-.14,2.5,5.5,5.5,0,0,0,.4,1.9,1.5,1.5,0,0,0,1,.94q1.24.36,3.77-2a4.85,4.85,0,0,1,4.76-.92Q273,131.59,273,132.17Z"/><path d="M279.95,131.23a6.94,6.94,0,0,1,1.24-.06,5.6,5.6,0,0,1,1.19.18,4,4,0,0,1,1,.43,17,17,0,0,0,4.57,1.89,3.54,3.54,0,0,0,2.81-.22q.37-.22.17-.54a3,3,0,0,0-.77-.74q-.57-.42-1.42-.92t-1.81-1q-1-.53-1.92-1.1a18.79,18.79,0,0,1-1.73-1.15,8,8,0,0,1-1.53-1.4,6.35,6.35,0,0,1-1-1.71,5.6,5.6,0,0,1-.4-1.94,6,6,0,0,1,.37-2.17,8.7,8.7,0,0,1,.94-2.11,14.81,14.81,0,0,1,1.58-2.15,17.08,17.08,0,0,1,2-1.94,15.22,15.22,0,0,1,2.24-1.54,5.2,5.2,0,0,1,1-.49,5.91,5.91,0,0,1,1.33-.35,8.21,8.21,0,0,1,1.61-.07,8.44,8.44,0,0,1,1.79.29,22.6,22.6,0,0,1,2.8,1.11,11.7,11.7,0,0,1,2.36,1.44,5,5,0,0,1,1,1.06,3.79,3.79,0,0,1,.48,1,4.19,4.19,0,0,1,.15,1q0,.49,0,.9-.12.72-.34,1.64t-.51,1.86q-.29.94-.62,1.81a9.7,9.7,0,0,1-.66,1.44,1.77,1.77,0,0,1-.76.71,1.68,1.68,0,0,1-1.16-.15q-4.23-1.28-3.89-3.67a8.56,8.56,0,0,1,.23-1.14l.34-1.29q.17-.65.29-1.24a2.89,2.89,0,0,0,.08-.93.44.44,0,0,0-.31-.42q-.26-.07-.85.32a5.94,5.94,0,0,0-1.16.76,9.89,9.89,0,0,0-1.21,1.17,8.78,8.78,0,0,0-1,1.4,5,5,0,0,0-.59,1.51,3.35,3.35,0,0,0,0,1.5,2.5,2.5,0,0,0,.9,1.32,15,15,0,0,0,2,1.46q1.11.68,2.21,1.32t2.07,1.26a9,9,0,0,1,1.61,1.28,3,3,0,0,1,.8,1.37,2.08,2.08,0,0,1-.32,1.56,7.86,7.86,0,0,1-.87,1.26,6,6,0,0,1-1.48,1.26,8.94,8.94,0,0,1-2.26,1,12.09,12.09,0,0,1-3.18.42,13.25,13.25,0,0,1-4.87-.81,16.4,16.4,0,0,1-4.87-3q-1.36-1-1.42-1.58t.59-.81A4.93,4.93,0,0,1,279.95,131.23Z"/></svg>